# xmcd
#
# Track frame offsets: 
#        150
#        16740
#        40922
#        56870
#        77036
#
# Disc length: 1321 seconds
#
# Revision: 0
# Processed by: cddbd v1.5.1PL0 Copyright (c) Steve Scherf et al.
# Submitted via: ExactAudioCopy v0.95a5
#
DISCID=35052705
DTITLE=Papa Gumbo - EP
DYEAR=1900
DGENRE=Blues
TTITLE0=T-Bone Shuffle
TTITLE1=Down The Line
TTITLE2=She Caught a Katy
TTITLE3=I Ain't Superstitious
TTITLE4=Wild Chile
EXTD=
EXTT0=
EXTT1=
EXTT2=
EXTT3=
EXTT4=
PLAYORDER=
